<?xml version="1.0" encoding="UTF-8"?>
<svg width="144.97mm" height="60.006mm" version="1.1" viewBox="0 0 144.97 60.006" xmlns="http://www.w3.org/2000/svg" xmlns:cc="http://creativecommons.org/ns#" xmlns:dc="http://purl.org/dc/elements/1.1/" xmlns:rdf="http://www.w3.org/1999/02/22-rdf-syntax-ns#">
 <metadata>
  <rdf:RDF>
   <cc:Work rdf:about="">
    <dc:format>image/svg+xml</dc:format>
    <dc:type rdf:resource="http://purl.org/dc/dcmitype/StillImage"/>
    <dc:title/>
   </cc:Work>
  </rdf:RDF>
 </metadata>
 <g transform="translate(-64.429 -50.064)" stroke-width=".26458">
  <path d="m154.65 79.935v-24.871h11.109l0.1358 38.497 10.451 0.08106c6.8841 0.0534 10.912-0.01791 11.802-0.20894 1.7192-0.36899 3.3511-1.5672 4.2751-3.1391l0.72364-1.231 0.0736-16.999 0.0736-16.999h11.098v17.156c0 19.306 0.01 19.197-2.0274 23.141-1.4707 2.8472-4.8377 6.1151-7.7742 7.5453-3.8534 1.8767-4.1386 1.9002-23.128 1.9002h-16.812z" fill="#e35115"/>
  <path d="m69.513 87.41 0.08405-17.661 0.73204-2.1734c1.6843-5.0008 6.0358-9.5002 10.811-11.178 2.7888-0.98019 4.4725-1.0638 21.456-1.0659l16.603-2e-3v49.742h-11.109l-0.0679-19.248-0.0679-19.248h-11.112c-11.086 0-11.115 2e-3 -12.358 0.61329-0.68482 0.33731-1.6224 1.043-2.0836 1.5683-1.7708 2.0168-1.6906 1.1312-1.7738 19.58l-0.07551 16.735h-11.121zm62.385-7.4745v-24.871h11.113v49.742h-11.113z" fill="#666"/>
 </g>
</svg>
